<svg height="511pt" viewBox="0 -71 511.997 511" width="511pt" xmlns="http://www.w3.org/2000/svg"><path d="m442.738281 140.203125c-.136719-.15625-.277343-.308594-.417969-.460937-.300781-.324219-.605468-.640626-.917968-.953126l-77.667969-77.667968c-3.269531-3.269532-6.996094-6.039063-11.046875-8.226563-.042969-.023437-.089844-.046875-.132812-.070312-.085938-.046875-.167969-.089844-.25-.132813-.089844-.050781-.183594-.097656-.273438-.144531-1.699219-.882813-3.445312-1.664063-5.242188-2.335937-.003906-.003907-.007812-.003907-.007812-.003907-.308594-.117187-.617188-.230469-.929688-.335937-.09375-.035156-.191406-.066406-.285156-.101563-.050781-.019531-.105468-.035156-.160156-.054687-.15625-.054688-.3125-.105469-.46875-.160156l-.015625-.003907c-.710937-.234375-1.429687-.449219-2.152344-.648437l-22.640625-6.269532c-4.691406-1.296874-9.652344-.597656-13.753906 1.792969-1.304688.761719-2.519531 1.695313-3.613281 2.785157v.003906c-.019531.019531-.039063.039062-.058594.058594-.261719.261718-.515625.535156-.761719.8125-.007812.011718-.015625.019531-.023437.03125-3.902344 4.488281-5.335938 10.683593-3.734375 16.464843l6.265625 22.636719c2.191406 7.914062 6.414062 15.164062 12.222656 20.96875l77.667969 77.667969c.359375.359375.726562.710937 1.101562 1.050781.039063.039062.078125.074219.117188.109375.035156.03125.066406.058594.097656.085937 6.113281 5.496094 13.933594 8.5 22.214844 8.5 8.738281 0 16.964844-3.34375 23.210937-9.429687.007813-.003906.011719-.011719.019531-.015625.101563-.101562.203126-.199219.300782-.300781.394531-.394531.777344-.792969 1.148437-1.203125 5.558594-6.128906 8.601563-13.996094 8.601563-22.332032 0-8.164062-2.921875-15.878906-8.265625-21.953124-.050781-.054688-.097657-.109376-.148438-.164063zm-15.71875 31.746094c-.003906.003906-.011719.007812-.015625.015625-5.195312 4.925781-13.429687 4.839844-18.523437-.253906l-12.375-12.375 18.78125-18.78125 1.699219 1.703124 10.675781 10.675782c5.179687 5.175781 5.179687 13.601562 0 18.777344-.082031.082031-.160157.160156-.242188.238281zm-26.277343-45.535157-18.78125 18.777344-46.40625-46.40625 17.835937-19.722656zm-77.015626-44.53125-1.453124-5.246093-3.792969-13.707031 17.429687 4.824218.59375.164063-12.742187 14.089843c-.011719-.039062-.027344-.082031-.035157-.125zm0 0"/><path d="m164.804688 148.421875c-4.523438-4.636719-10.582032-7.1875-17.058594-7.1875-6.476563 0-12.53125 2.554687-17.054688 7.1875l-52.101562 53.421875c-4.25 4.355469-5.46875 10.792969-3.105469 16.398438 2.363281 5.605468 7.824219 9.230468 13.90625 9.230468h10.222656v33.460938c0 10.066406 8.191407 18.257812 18.257813 18.257812h59.75c10.066406 0 18.257812-8.191406 18.257812-18.257812v-33.460938h10.226563c6.082031 0 11.539062-3.621094 13.902343-9.230468 2.363282-5.605469 1.148438-12.042969-3.101562-16.398438zm23.875 59.050781c-7.058594 0-12.800782 5.742188-12.800782 12.800782v38.917968h-18.132812v-15.328125c0-5.519531-4.476563-10-10-10-5.519532 0-10 4.480469-10 10v15.328125h-18.132813v-38.917968c0-7.058594-5.742187-12.800782-12.800781-12.800782h-5.777344l43.976563-45.085937c.976562-1.003907 2.132812-1.152344 2.734375-1.152344.605468 0 1.761718.148437 2.738281 1.152344l43.972656 45.085937zm0 0"/><path d="m287.402344 146.007812c-5.523438 0-10 4.476563-10 10v.023438c0 5.523438 4.476562 9.988281 10 9.988281 5.519531 0 10-4.488281 10-10.011719 0-5.523437-4.476563-10-10-10zm0 0"/><path d="m466.6875.5h-206.773438c-24.988281 0-45.316406 20.328125-45.316406 45.3125v49.765625h-169.28125c-24.988281 0-45.316406 20.328125-45.316406 45.316406v135.683594c0 24.984375 20.328125 45.3125 45.316406 45.3125h16.984375c2.460938 0 4.808594.925781 6.609375 2.605469l41.378906 38.582031c3.871094 3.605469 8.808594 5.484375 13.824219 5.484375 3.011719 0 6.050781-.675781 8.90625-2.0625 7.617188-3.6875 12.089844-11.523438 11.398438-19.957031l-1.71875-20.960938c-.105469-1.296875.511719-2.179687.890625-2.589843.378906-.414063 1.210937-1.105469 2.511718-1.105469h105.984376c24.984374 0 45.3125-20.328125 45.3125-45.3125v-49.765625h68.496093c1.304688 0 2.132813.691406 2.511719 1.101562.378906.414063 1 1.296875.894531 2.59375l-1.722656 20.960938c-.6875 8.4375 3.785156 16.269531 11.402344 19.960937 2.855469 1.382813 5.894531 2.058594 8.902343 2.058594 5.019532 0 9.957032-1.878906 13.824219-5.488281l41.382813-38.582032c1.800781-1.675781 4.144531-2.601562 6.609375-2.601562h16.984375c24.984375 0 45.3125-20.328125 45.3125-45.316406v-135.683594c.003906-24.984375-20.324219-45.3125-45.308594-45.3125zm25.3125 180.996094c0 13.957031-11.355469 25.3125-25.3125 25.3125h-16.988281c-7.539063 0-14.730469 2.832031-20.25 7.976562l-41.378907 38.582032c-.085937.082031-.144531.117187-.140624.117187-.117188.003906-.359376-.105469-.414063-.1875-.003906-.015625-.011719-.082031 0-.199219l1.71875-20.957031c.53125-6.503906-1.699219-12.984375-6.117187-17.78125-4.421876-4.796875-10.695313-7.550781-17.21875-7.550781h-68.496094v-9.777344c0-5.523438-4.480469-10-10-10-5.523438 0-10 4.476562-10 10v79.546875c0 13.957031-11.355469 25.3125-25.316406 25.3125h-105.984376c-6.523437 0-12.800781 2.75-17.21875 7.550781-4.421874 4.796875-6.648437 11.277344-6.117187 17.777344l1.71875 20.960938c.011719.117187.003906.183593.003906.183593-.058593.097657-.328125.242188-.398437.207031-.015625-.007812-.074219-.039062-.160156-.121093l-41.378907-38.582031c-5.519531-5.144532-12.707031-7.976563-20.25-7.976563h-16.984375c-13.960937 0-25.316406-11.355469-25.316406-25.3125v-135.683594c0-13.960937 11.355469-25.316406 25.316406-25.316406h206.769532c6.40625 0 12.457031 2.367187 17.140624 6.6875.230469.210937.457032.429687.679688.648437 3.921875 3.890626 10.253906 3.863282 14.144531-.058593 3.890625-3.925781 3.859375-10.253907-.0625-14.144531-1.734375-1.71875-3.582031-3.285157-5.53125-4.683594-.300781-.214844-.601562-.425782-.90625-.632813-.457031-.3125-.917969-.613281-1.382812-.90625-.621094-.390625-1.253907-.769531-1.890625-1.125-.160156-.089843-.320313-.179687-.480469-.269531-6.582031-3.601562-14.003906-5.515625-21.710937-5.515625h-17.488282v-49.765625c0-13.960938 11.355469-25.316406 25.316406-25.316406h206.769532c13.960937 0 25.316406 11.355468 25.316406 25.316406zm0 0"/></svg>