<svg id="Layer_1" height="512" viewBox="0 0 512 512" width="512" xmlns="http://www.w3.org/2000/svg" data-name="Layer 1"><path d="m66.039 245.065a6 6 0 0 0 -12 0v8.519a6 6 0 1 0 12 0z"/><path d="m117.894 222.683v-73.03h21.217a6 6 0 0 0 4.718-9.706l-53.412-67.985a6 6 0 0 0 -9.436 0l-53.412 67.985a6 6 0 0 0 4.718 9.706h20.813v73.03a6 6 0 0 0 6 6h52.8a6 6 0 0 0 5.994-6zm-12-79.03v73.03h-40.794v-73.03a6 6 0 0 0 -6-6h-14.469l41.069-52.272 41.068 52.272h-14.874a6 6 0 0 0 -6 6z"/><path d="m60.039 268.731a6 6 0 0 0 -6 6v8.52a6 6 0 0 0 12 0v-8.52a6 6 0 0 0 -6-6z"/><path d="m219.4 185.4a6 6 0 1 0 -12 0v8.52a6 6 0 0 0 12 0z"/><path d="m271.254 89.984h21.218a6 6 0 0 0 4.718-9.706l-53.413-67.985a6 6 0 0 0 -9.436 0l-53.412 67.985a6 6 0 0 0 4.718 9.706h20.809v73.03a6 6 0 0 0 6 6h52.8a6 6 0 0 0 6-6zm-6-12a6 6 0 0 0 -6 6v73.03h-40.8v-73.03a6 6 0 0 0 -6-6h-14.463l41.068-52.272 41.068 52.272z"/><path d="m270.607 185.4a6 6 0 0 0 -12 0v8.52a6 6 0 0 0 12 0z"/><path d="m213.4 209.062a6 6 0 0 0 -6 6v8.52a6 6 0 0 0 12 0v-8.52a6 6 0 0 0 -6-6z"/><path d="m264.607 209.062a6 6 0 0 0 -6 6v8.52a6 6 0 0 0 12 0v-8.52a6 6 0 0 0 -6-6z"/><path d="m378.71 269.529a6 6 0 0 0 6-6v-8.519a6 6 0 0 0 -12 0v8.519a6 6 0 0 0 6 6z"/><path d="m409.088 81.907a6 6 0 0 0 -9.436 0l-53.412 67.985a6 6 0 0 0 4.717 9.707h20.81v73.028a6 6 0 0 0 6 6h52.8a6 6 0 0 0 6-6v-73.027h21.217a6 6 0 0 0 4.718-9.707zm21.477 65.693a6 6 0 0 0 -6 6v73.028h-40.8v-73.028a6 6 0 0 0 -6-6h-14.465l41.07-52.274 41.068 52.274z"/><path d="m429.918 269.529a6 6 0 0 0 6-6v-8.519a6 6 0 0 0 -12 0v8.519a6 6 0 0 0 6 6z"/><path d="m423.918 293.2a6 6 0 1 0 12 0v-8.518a6 6 0 0 0 -12 0z"/><path d="m76.768 142.044a6 6 0 0 0 -6 6v3.4a6 6 0 0 0 12 0v-3.4a6 6 0 0 0 -6-6z"/><path d="m76.768 163.417a6 6 0 0 0 -6 6v32.957a6 6 0 0 0 12 0v-32.957a6 6 0 0 0 -6-6z"/><path d="m392.036 337.388h-55.2a6 6 0 0 0 0 12h55.2a6 6 0 0 0 0-12z"/><path d="m392.036 364.165h-55.2a6 6 0 0 0 0 12h55.2a6 6 0 0 0 0-12z"/><path d="m392.036 390.942h-55.2a6 6 0 0 0 0 12h55.2a6 6 0 1 0 0-12z"/><path d="m123.593 377.2h14.356a6 6 0 0 0 0-12h-14.356a6 6 0 0 0 0 12z"/><path d="m81.768 377.2h14.355a6 6 0 0 0 0-12h-14.355a6 6 0 0 0 0 12z"/><path d="m81.768 410.348h14.355a6 6 0 0 0 0-12h-14.355a6 6 0 1 0 0 12z"/><path d="m123.593 410.348h14.356a6 6 0 0 0 0-12h-14.356a6 6 0 0 0 0 12z"/><path d="m81.768 443.5h14.355a6 6 0 0 0 0-12h-14.355a6 6 0 1 0 0 12z"/><path d="m123.593 443.5h14.356a6 6 0 0 0 0-12h-14.356a6 6 0 0 0 0 12z"/><path d="m81.768 476.646h14.355a6 6 0 0 0 0-12h-14.355a6 6 0 1 0 0 12z"/><path d="m123.593 476.646h14.356a6 6 0 0 0 0-12h-14.356a6 6 0 0 0 0 12z"/><path d="m88.738 329.463h14.356a6 6 0 0 0 0-12h-14.356a6 6 0 0 0 0 12z"/><path d="m130.564 329.463h14.356a6 6 0 1 0 0-12h-14.356a6 6 0 0 0 0 12z"/><path d="m237.753 385.306a2.5 2.5 0 1 1 0-4.978 2.727 2.727 0 0 1 2.172 1.033 6 6 0 0 0 9.462-7.381 14.6 14.6 0 0 0 -6.151-4.592 5.994 5.994 0 0 0 -11.9.418 14.447 14.447 0 0 0 6.417 27.5 2.5 2.5 0 1 1 0 4.978 2.726 2.726 0 0 1 -2.173-1.035 6 6 0 0 0 -9.459 7.385 14.6 14.6 0 0 0 5.716 4.41 5.993 5.993 0 0 0 11.831 0 14.454 14.454 0 0 0 -5.915-27.739z"/><path d="m485.713 496v-124.8a6 6 0 0 0 -6-6h-63.2v-89.66a6 6 0 0 0 -8.778-5.318l-23.449 12.246a6 6 0 0 0 -11.574 2.209v3.836l-47.7 24.913v-30.171a6 6 0 0 0 -3.626-5.51l-82.292-35.464a6 6 0 0 0 -4.873.055l-50.869 23.3v-4.348a6 6 0 0 0 -6-6h-34.072v-18.217a6 6 0 0 0 -12 0v18.215h-34.066a6 6 0 0 0 -6 6v34.279h-19.4a6 6 0 0 0 -6 6v37.582h-9.542a6 6 0 0 0 -6 6v150.853a6 6 0 0 0 6 6h423.441a6 6 0 0 0 6-6zm-332.429-6h-91.012v-138.853h91.012zm0-150.853h-75.475v-31.582h75.475zm0-55.892v12.31h-50.07v-28.279h68.133v3.844l-14.562 6.67a6 6 0 0 0 -3.501 5.455zm24.203 206.745h-12.2v-202.894l12.2-5.589zm92.664-221.266 13.757 5.929.065 106.136a47.577 47.577 0 0 0 -13.822-24.385zm-27.437-11.824 15.437 6.652v84.545a47.353 47.353 0 0 0 -15.437-4.449zm-27.335 7.252 15.335-7.024v86.7a47.329 47.329 0 0 0 -15.335 4.929zm-12 225.838h-13.892v-213.979l13.892-6.363v88.007a47.469 47.469 0 0 0 0 66.615zm27.335 0h-15.335v-56.818a47.329 47.329 0 0 0 15.335 4.929zm27.437 0h-15.437v-51.713a47.329 47.329 0 0 0 15.437-4.449zm-20.745-63.41a35.618 35.618 0 1 1 35.674-35.617 35.686 35.686 0 0 1 -35.674 35.617zm32.745 63.41v-64.468a47.584 47.584 0 0 0 13.834-24.439l.054 88.907zm42.856 0h-16.968l-.127-210.165 17.1 7.367zm67.984 0h-34.8v-60.28h34.8zm92.722-17.269h-53.99v-9.251h53.99zm0-21.251h-53.99v-10.38h53.99zm0-22.376h-53.99v-11.37h53.99zm0-23.37h-53.99v-10.38h53.99zm0-22.38h-59.99a6 6 0 0 0 -6 6v89.377a6 6 0 0 0 6 6h59.99v5.269h-80.722v-66.28a6 6 0 0 0 -6-6h-46.8a6 6 0 0 0 -6 6v66.28h-9.184v-163.036l53.217-27.793c.161.013.322.024.486.024a5.992 5.992 0 0 0 5.181-2.984l20.62-10.769v85.758a6 6 0 0 0 6 6h63.2z"/></svg>