<svg id="Capa_1" enable-background="new 0 0 511.999 511.999" height="512" viewBox="0 0 511.999 511.999" width="512" xmlns="http://www.w3.org/2000/svg"><g><path d="m456.5 511.999c4.143 0 7.5-3.358 7.5-7.5s-3.357-7.5-7.5-7.5h-14v-164.368c0-4.142-3.357-7.5-7.5-7.5s-7.5 3.358-7.5 7.5v164.368h-343v-288.909l171.5-149.887 171.5 149.888v89.541c0 4.142 3.357 7.5 7.5 7.5s7.5-3.358 7.5-7.5v-76.432l6.239 5.453c10.38 9.071 26.205 8.005 35.274-2.373 9.094-10.402 8.035-26.181-2.371-35.275l-39.143-34.21v-112.057h1.987c7.463 0 13.535-6.072 13.535-13.536v-15.666c.001-7.464-6.071-13.536-13.534-13.536h-69.263c-7.463 0-13.535 6.072-13.535 13.536v15.667c0 7.463 6.072 13.536 13.535 13.536h1.987v54.996l-104.759-91.559c-9.379-8.196-23.525-8.197-32.904 0l-209.191 182.829c-10.404 9.092-11.467 24.87-2.371 35.276 9.077 10.386 24.903 11.437 35.275 2.372l6.239-5.453v275.799h-14c-4.143 0-7.5 3.358-7.5 7.5s3.357 7.5 7.5 7.5zm-79.811-484.261v-12.738h66.333v12.738c-7.892 0-58.692 0-66.333 0zm50.811 15v98.947l-35.288-30.841v-68.106zm-374.11 172.62c-4.152 3.629-10.483 3.202-14.111-.949-3.63-4.156-3.22-10.465.949-14.11l209.19-182.828c3.752-3.279 9.41-3.279 13.162 0 9.985 8.726 159.932 139.777 167.483 146.377l41.707 36.451c4.162 3.639 4.586 9.948.948 14.11-3.627 4.15-9.959 4.578-14.11.949-8.206-7.172-186.715-163.187-194.904-170.344-4.397-3.844-11.023-3.835-15.408 0z"/><path d="m276.249 263.693c-3.853-1.517-8.209.375-9.728 4.229-1.518 3.854.376 8.209 4.229 9.727 15.51 6.11 25.531 20.823 25.531 37.482 0 22.211-18.07 40.282-40.282 40.282-22.211 0-40.281-18.07-40.281-40.282 0-16.66 10.021-31.373 25.53-37.482 3.854-1.518 5.747-5.873 4.229-9.727-1.517-3.854-5.872-5.748-9.727-4.229-21.281 8.384-35.032 28.575-35.032 51.438 0 30.482 24.799 55.282 55.281 55.282s55.282-24.799 55.282-55.282c.001-22.863-13.75-43.054-35.032-51.438z"/><path d="m339.933 345.041c.059-.164.238-.279.438-.279h18.921c8.541 0 15.49-6.949 15.49-15.49v-28.281c0-8.541-6.949-15.49-15.49-15.49h-18.921c-.199 0-.379-.115-.437-.278-1-2.809-2.154-5.597-3.432-8.286-.078-.165-.035-.371.107-.514l13.381-13.379c6.039-6.039 6.039-15.866 0-21.906l-19.998-19.998c-6.041-6.04-15.868-6.04-21.905 0l-13.38 13.379c-.143.142-.348.187-.514.109-2.688-1.276-5.475-2.431-8.285-3.432-.164-.058-.278-.238-.278-.437v-18.921c0-8.542-6.949-15.49-15.49-15.49h-28.28c-8.541 0-15.49 6.949-15.49 15.49v18.921c0 .199-.115.378-.279.437-2.811 1-5.599 2.155-8.285 3.431-.161.078-.368.034-.513-.109l-13.379-13.379c-6.038-6.038-15.863-6.039-21.907 0l-19.996 19.997c-6.055 6.053-6.056 15.854-.001 21.907l13.381 13.381c.142.142.185.347.106.513-1.276 2.688-2.431 5.475-3.431 8.284-.059.165-.238.279-.437.279h-18.922c-8.541 0-15.49 6.949-15.49 15.49v28.281c0 8.542 6.949 15.49 15.49 15.49h18.922c.198 0 .378.115.437.28 1.001 2.809 2.155 5.596 3.432 8.285.077.164.034.369-.109.512l-13.377 13.378c-6.057 6.055-6.056 15.854-.002 21.907l19.997 19.998c6.053 6.054 15.852 6.055 21.907 0l13.38-13.38c.142-.142.345-.186.514-.107 2.691 1.278 5.479 2.432 8.283 3.43.164.059.279.239.279.438v18.921c0 8.541 6.949 15.49 15.49 15.49h28.28c8.541 0 15.49-6.949 15.49-15.49v-18.921c0-.199.115-.379.278-.438 2.807-1 5.595-2.153 8.286-3.431.163-.079.37-.034.512.108l13.38 13.379c6.053 6.054 15.851 6.056 21.907 0l19.996-19.998c6.055-6.054 6.053-15.853.001-21.906l-13.38-13.379c-.143-.143-.187-.35-.109-.512 1.278-2.687 2.432-5.475 3.432-8.284zm-13.93 19.404 13.381 13.38c.035.035.143.143.143.346s-.107.311-.144.346l-19.996 19.998c-.036.036-.145.144-.348.144-.202 0-.311-.108-.346-.144l-13.381-13.38c-4.618-4.618-11.673-5.844-17.552-3.051-2.234 1.061-4.551 2.02-6.885 2.851-6.129 2.183-10.246 8.037-10.246 14.568v18.921c0 .27-.22.49-.49.49h-28.28c-.271 0-.49-.22-.49-.49v-18.921c0-6.531-4.118-12.386-10.248-14.568-2.33-.83-4.646-1.789-6.881-2.85-5.885-2.795-12.939-1.565-17.555 3.051l-13.38 13.38c-.035.035-.144.143-.346.143-.203 0-.312-.108-.347-.144l-19.999-20c-.035-.035-.143-.143-.143-.345s.107-.31.145-.346l13.378-13.379c4.62-4.619 5.846-11.674 3.053-17.553-1.06-2.233-2.02-4.549-2.851-6.883-2.183-6.129-8.036-10.248-14.567-10.248h-18.922c-.271 0-.49-.22-.49-.49v-28.281c0-.27.22-.49.49-.49h18.922c6.531 0 12.386-4.119 14.567-10.247.831-2.333 1.79-4.649 2.85-6.881 2.795-5.882 1.568-12.938-3.051-17.555l-13.38-13.381c-.036-.035-.144-.143-.144-.346 0-.202.107-.31.145-.346l19.996-19.997c.19-.192.502-.193.694-.001l13.379 13.379c4.618 4.621 11.675 5.847 17.555 3.052 2.231-1.06 4.546-2.018 6.881-2.85 6.13-2.183 10.248-8.037 10.248-14.568v-18.921c0-.271.22-.49.49-.49h28.28c.271 0 .49.22.49.49v18.921c0 6.532 4.118 12.386 10.247 14.568 2.335.831 4.65 1.79 6.882 2.85 5.882 2.793 12.937 1.566 17.554-3.052l13.381-13.379c.189-.19.502-.19.691 0l19.998 19.997c.191.191.191.502.001.694l-13.381 13.379c-4.617 4.617-5.844 11.671-3.051 17.555 1.061 2.233 2.02 4.548 2.85 6.881 2.182 6.129 8.037 10.248 14.568 10.248h18.921c.271 0 .49.22.49.49v28.281c0 .271-.22.49-.49.49h-18.921c-6.531 0-12.386 4.118-14.569 10.249-.83 2.333-1.788 4.648-2.85 6.881-2.789 5.881-1.563 12.935 3.054 17.554z"/></g></svg>