<?xml version="1.0"?>
<svg xmlns="http://www.w3.org/2000/svg" viewBox="0 0 64 64" width="512" height="512"><g id="Outline"><g><path d="M61,45a1,1,0,0,0-1,1V60H57V49a3,3,0,0,0-3-3H48a3,3,0,0,0-3,3v8a1,1,0,0,0,2,0V49a1,1,0,0,1,1-1h6a1,1,0,0,1,1,1v4H53a1,1,0,0,0,0,2h2v5H20V52.286a1,1,0,0,0-2,0V61a1,1,0,0,0,1,1H61a1,1,0,0,0,1-1V46A1,1,0,0,0,61,45Z"/><path d="M61.991,23a.991.991,0,0,0-.3-.724l-21-20a1,1,0,0,0-1.378,0l-21,20a.991.991,0,0,0-.3.724H18v2.714a1,1,0,0,0,2,0V24H60V42a1,1,0,0,0,2,0V23ZM45,18H35a1,1,0,0,0-1,1v3H26.75L40,9.381,53.25,22H46V19A1,1,0,0,0,45,18Zm-9,4V20h8v2Zm20.15,0L40.689,7.276a1,1,0,0,0-1.378,0L23.85,22H21.5L40,4.381,58.5,22Z"/><path d="M26,48a4,4,0,0,0,4,4v4a1,1,0,0,0,1,1h4a1,1,0,0,0,1-1V50a1,1,0,0,0-2,0v5H32V47h9a3,3,0,0,0,3-3V34a3,3,0,0,0-3-3H36a1,1,0,0,0,0,2h2v3H28V33h4a1,1,0,0,0,0-2H27.139L13.274,27.039A1,1,0,0,0,12,28V50a1,1,0,0,0,1,1,.981.981,0,0,0,.274-.039L26,47.326Zm12-3H28V42H38Zm-8,5a2,2,0,0,1-2-2V47h2ZM42,34V44a1,1,0,0,1-1,1H40V33h1A1,1,0,0,1,42,34Zm-4,4v2H28V38ZM14,29.326l12,3.428V45.246L14,48.674Z"/><path d="M9,38H3a1,1,0,0,0,0,2H9a1,1,0,0,0,0-2Z"/><path d="M2.684,32.949l6,2a1,1,0,0,0,.632-1.9l-6-2a1,1,0,0,0-.632,1.9Z"/><path d="M8.684,43.051l-6,2a1,1,0,0,0,.632,1.9l6-2a1,1,0,0,0-.632-1.9Z"/><path d="M56,40a1,1,0,0,0,1-1V33a1,1,0,0,0-1-1H48a1,1,0,0,0-1,1v6a1,1,0,0,0,1,1Zm-7-6h6v4H49Z"/></g></g></svg>
