<?xml version="1.0" encoding="UTF-8"?>
<svg width="370px" height="244px" viewBox="0 0 370 244" version="1.1" xmlns="http://www.w3.org/2000/svg" xmlns:xlink="http://www.w3.org/1999/xlink">
    <!-- Generator: Sketch 57.1 (83088) - https://sketch.com -->
    <title>1. Foundation/Logotypes/H&amp;M/Red</title>
    <desc>Created with Sketch.</desc>
    <defs>
        <path d="M368.5272,14.8513 C356.8412,63.4033 326.9862,216.2273 322.4132,239.7583 C321.0852,246.5653 313.6982,243.6813 311.7692,241.0183 C303.1992,229.1683 293.5442,228.9823 294.6282,221.0993 C299.9992,181.8663 319.3382,83.4333 324.3782,60.2363 C298.6602,112.9323 272.0092,178.8023 258.3262,216.1503 C255.4192,224.0813 250.1382,223.5003 246.8462,217.6963 C242.2162,209.5463 233.2352,205.3843 231.7532,195.7533 C227.0512,165.1253 237.1222,106.7503 238.5262,69.8173 C224.5322,110.1593 201.0352,188.4863 190.7442,223.8743 C186.4882,238.5173 172.3622,236.1273 176.1172,221.8563 C191.7592,162.4673 225.4432,57.4313 240.0322,19.6583 C243.4592,10.7843 252.4382,11.0893 259.8952,7.4133 C273.3192,0.7953 279.9822,1.6763 280.1272,8.3593 C280.3172,17.0583 279.0292,28.5893 278.1112,36.9633 C273.1282,82.3863 264.7902,119.5063 264.1572,166.1523 C286.0962,109.3513 304.5022,69.8753 328.1872,21.2443 C335.7162,5.7743 340.5122,8.6513 346.6902,5.9013 C370.7722,-4.8137 371.6742,1.7683 368.5272,14.8513 Z M174.5993,0.1146 C178.8593,1.1396 178.5123,6.1646 175.9093,13.0266 C168.2273,33.2736 157.5743,59.8736 145.3933,91.2386 C153.0513,90.3646 157.2043,90.0686 157.2043,90.0686 C168.1983,88.7106 170.2453,94.2076 167.1503,100.0596 C164.6843,104.7226 161.7143,101.6126 151.4263,116.9486 C145.6303,125.5906 136.1673,127.8726 130.9113,129.0246 C118.2493,162.5476 104.6813,199.9406 91.4963,239.7956 C89.5773,245.5986 83.9723,244.3266 82.2873,241.9686 C76.0953,233.3216 71.5293,233.0356 66.7293,226.0416 C66.1523,224.9096 65.0233,223.3696 65.7023,220.5936 C69.2313,206.1686 78.6033,176.5266 92.8583,137.5026 C74.9003,141.3946 55.4713,145.5786 47.4503,147.4436 C37.8243,172.8876 28.4363,198.4096 19.5423,223.6236 C14.0243,239.2636 -0.3377,236.2396 4.7023,221.4576 C12.7303,197.9096 21.5923,173.4536 30.4783,149.7376 C20.5303,148.6746 17.1653,141.6496 11.6053,135.7796 C9.4583,133.5126 4.7773,133.8316 2.4853,130.6526 C-1.6377,124.9416 -1.2267,122.4046 8.2943,119.6566 C21.4063,115.8716 33.9303,112.5586 45.7593,109.6586 C61.8483,68.1346 76.3883,32.5146 84.1393,13.5076 C90.1143,-1.1384 105.5143,0.2256 99.6643,14.6736 C87.7753,44.0366 75.5853,74.5406 63.5543,105.4726 C80.3793,101.6906 95.4373,98.8006 108.3023,96.6026 C118.3633,70.7576 129.9633,42.3936 142.9223,12.6346 C143.7673,10.6976 146.2313,7.9566 148.8003,7.5166 C156.8923,6.1316 170.0513,-0.9814 174.5993,0.1146 Z M144.2794,143.4906 C153.3064,132.7776 174.2504,142.2866 163.6564,158.7786 C161.1044,162.7506 158.1214,166.5026 155.0094,170.3056 C156.0394,173.5876 157.1534,177.0666 158.2684,180.4866 C159.2574,179.5366 160.2234,178.6296 161.1554,177.8216 C167.7574,172.1006 174.0634,177.7756 167.5354,187.4496 C166.1314,189.5296 164.5454,191.7676 162.8064,193.9716 C163.6314,196.3246 164.3674,198.3476 164.9524,199.8486 C168.3274,208.5026 159.4644,210.6726 156.6074,203.5046 C156.3574,202.8786 156.0974,202.2076 155.8294,201.5096 C150.4424,206.2816 144.2114,209.2866 137.5544,207.2166 C126.6004,203.8096 123.8134,188.3876 134.0404,176.5056 C138.1434,171.7386 141.2314,168.4316 143.8114,165.7896 C143.0334,163.2456 142.4044,161.1136 141.9924,159.6206 C140.6644,154.8096 139.4654,149.2036 144.2794,143.4906 Z M147.9944,178.9736 C147.0674,180.1636 146.1464,181.3696 145.2424,182.6116 C139.8564,190.0076 143.0454,192.6396 147.0474,190.1916 C148.3124,189.4186 149.5714,188.4766 150.8144,187.4426 C149.8614,184.6376 148.9084,181.7726 147.9944,178.9736 Z M154.2144,155.1266 C160.8834,147.5966 147.6984,144.4456 150.7344,155.9626 C150.9044,156.6126 151.1164,157.3756 151.3544,158.2166 C152.2814,157.2556 153.2194,156.2496 154.2144,155.1266 Z" id="path-1"></path>
    </defs>
    <g id="1.-Foundation/Logotypes/H&amp;M/Red" stroke="none" stroke-width="1" fill="none" fill-rule="evenodd">
        <mask id="mask-2" fill="white">
            <use xlink:href="#path-1"></use>
        </mask>
        <use id="Combined-Shape" fill="#D6001C" xlink:href="#path-1"></use>
    </g>
</svg>